<svg width="97" height="24" viewBox="0 0 97 24" fill="none" xmlns="http://www.w3.org/2000/svg">
<g clip-path="url(#clip0_487_487)">
<path d="M41.7454 8.86733L45.8208 9.90323L57.3282 0L41.7454 8.86733Z" fill="#3FDDFE"/>
<path d="M47.8054 10.4076L52.4225 11.5812L57.3282 0L47.8054 10.4076Z" fill="#3FDDFE"/>
<path d="M57.3283 0L45.8208 9.90323L47.8055 13.2L49.5077 10.8403L47.8055 10.4076L57.3283 0Z" fill="#4D7FFD"/>
<path d="M47.8054 10.4076V13.2L49.5077 10.8404L47.8054 10.4076Z" fill="#240065"/>
<path d="M12.511 19.5211V11.8433C12.511 11.5509 12.6967 11.3679 12.9754 11.3679H14.8328C15.1115 11.3679 15.2972 11.5507 15.2972 11.8433V19.5211C15.2972 19.8135 15.1115 19.9964 14.8328 19.9964H12.9754C12.6967 19.9964 12.511 19.8137 12.511 19.5211Z" fill="#240065"/>
<path d="M13.9041 10.4018C14.6735 10.4018 15.2972 9.78797 15.2972 9.03075C15.2972 8.27352 14.6735 7.65967 13.9041 7.65967C13.1347 7.65967 12.511 8.27352 12.511 9.03075C12.511 9.78797 13.1347 10.4018 13.9041 10.4018Z" fill="#3FDDFE"/>
<path d="M0.5 19.4926V7.6848C0.5 7.39396 0.685713 7.20001 0.964371 7.20001H6.51803C9.39702 7.20001 10.8274 8.82876 10.8274 10.7482C10.8274 11.9503 10.233 12.9973 8.9142 13.5207C10.233 13.9666 11.2918 15.1299 11.2918 16.4291C11.2918 18.3678 9.88019 19.9966 6.9824 19.9966H0.964371C0.685713 19.9966 0.5 19.8026 0.5 19.4926ZM8.00409 11.0584C8.00409 10.4767 7.65111 9.91441 6.6296 9.91441H3.379V12.28L6.57372 12.2992C7.50264 12.2992 8.00409 11.6594 8.00409 11.0584ZM6.79668 17.2822C8.09703 17.2822 8.41276 16.5453 8.41276 16.0026C8.41276 15.3821 7.94839 14.8392 7.16829 14.8392H3.379V17.2822H6.79668Z" fill="#240065"/>
<path d="M16.5164 19.5029V18.6986C16.5164 18.4975 16.535 18.3696 16.5721 18.2781C17.1107 16.9072 18.6153 15.0059 19.8227 13.8176H17.018C16.7209 13.8176 16.5165 13.6167 16.5165 13.3241V11.8617C16.5165 11.5692 16.7209 11.3682 17.018 11.3682H23.1105C23.4076 11.3682 23.6119 11.551 23.6119 11.8617L23.5933 12.7391C23.5933 12.9584 23.5562 13.1232 23.4262 13.2511C22.1259 14.5674 20.3243 16.6148 19.9158 17.6751H23.2034C23.5006 17.6751 23.7049 17.8761 23.7049 18.1686V19.5031C23.7049 19.7955 23.5006 19.9966 23.2034 19.9966H16.9811C16.6834 19.9966 16.5164 19.7953 16.5164 19.5029Z" fill="#240065"/>
<path d="M24.9241 19.5219V12.2748C24.9241 9.86501 25.8143 7.20001 29.2272 7.20001C29.4498 7.20001 29.6536 7.40077 29.6909 7.5832L29.9319 8.93402C29.9876 9.24441 29.8762 9.48165 29.5426 9.53647C28.133 9.75555 27.5579 10.4491 27.5579 11.8548H29.7837C30.062 11.8548 30.2659 12.0374 30.2659 12.3111V13.7897C30.2659 14.0636 30.0618 14.246 29.7837 14.246H27.6507V19.5217C27.6507 19.8138 27.4652 19.9962 27.187 19.9962H25.3879C25.1096 19.9966 24.9241 19.814 24.9241 19.5219Z" fill="#240065"/>
<path d="M31.4851 19.5214V7.65704C31.4851 7.38279 31.6708 7.20001 31.9495 7.20001H33.7511C34.0297 7.20001 34.2155 7.38279 34.2155 7.65704V19.5212C34.2155 19.8136 34.0297 19.9964 33.7511 19.9964H31.9495C31.6708 19.9966 31.4851 19.8136 31.4851 19.5214Z" fill="#240065"/>
<path d="M37.0509 23.3052C36.8093 23.2137 36.7536 22.9763 36.8652 22.7385L37.3851 21.5321C37.478 21.2578 37.7565 21.1665 38.0352 21.2943C38.7037 21.5869 39.131 21.6784 39.5954 21.6784C41.1556 21.6784 41.8429 20.6912 41.6386 19.2103C41.1742 19.7588 40.3568 20.1793 39.3169 20.1793C37.3851 20.1793 35.4348 18.9179 35.4348 15.7918V11.8432C35.4348 11.5508 35.6205 11.368 35.8992 11.368H37.738C38.0165 11.368 38.2022 11.5508 38.2022 11.8432V15.8831C38.2022 17.1446 38.7596 17.8577 39.8369 17.8577C40.6355 17.8577 41.3785 17.4737 41.6756 16.6329V11.8432C41.6756 11.5508 41.8613 11.368 42.1586 11.368H43.9232C44.2018 11.368 44.3875 11.5508 44.3875 11.8432V19.2103C44.3875 22.7934 42.6414 24 39.9854 24C38.7596 24 37.9053 23.7806 37.0509 23.3052Z" fill="#240065"/>
<path d="M80.5443 17.4801C80.2706 17.7359 79.9138 17.8762 79.5349 17.8762C79.1429 17.8762 78.7743 17.7259 78.497 17.4533C78.22 17.1806 78.0673 16.8178 78.0673 16.432C78.0673 16.0462 78.22 15.6835 78.497 15.4108C78.7743 15.1379 79.1429 14.9878 79.5349 14.9878C79.9138 14.9878 80.2706 15.1282 80.5443 15.3839L81.3436 14.5538C80.8725 14.1141 80.2357 13.8444 79.5349 13.8444C78.0827 13.8444 76.9053 15.003 76.9053 16.4322C76.9053 17.8614 78.0825 19.0202 79.5349 19.0202C80.2355 19.0202 80.8723 18.7503 81.3436 18.3106L80.5443 17.4801Z" fill="#231F20"/>
<path d="M89.4684 17.4985H89.36H88.3052V18.9205H87.1636V13.9432H89.36C90.6895 13.9432 91.4336 14.5619 91.4336 15.6711C91.4336 16.439 91.1012 16.9936 90.4871 17.278L91.5636 18.9205H90.2703L89.4684 17.4985ZM89.36 16.56C89.9959 16.56 90.35 16.2756 90.35 15.7067C90.35 15.1449 89.9959 14.8749 89.36 14.8749H88.3052V16.56H89.36Z" fill="#231F20"/>
<path d="M94.477 13.9432C95.7702 13.9432 96.4999 14.5619 96.4999 15.6711C96.4999 16.8372 95.7702 17.4985 94.477 17.4985H93.4727V18.9205H92.3311V13.9432H94.477ZM93.4727 16.56H94.4191C95.055 16.56 95.4162 16.2756 95.4162 15.7067C95.4162 15.1449 95.055 14.8749 94.4191 14.8749H93.4727V16.56Z" fill="#231F20"/>
<path d="M83.9731 14.9876C84.3649 14.9876 84.7337 15.1379 85.0108 15.4106C85.288 15.6833 85.4405 16.046 85.4405 16.4318C85.4405 16.8176 85.2878 17.1804 85.0108 17.4531C84.7335 17.7259 84.3649 17.8761 83.9731 17.8761C83.5811 17.8761 83.2125 17.7259 82.9353 17.4531C82.6582 17.1802 82.5055 16.8176 82.5055 16.4318C82.5055 16.046 82.6582 15.6833 82.9353 15.4106C83.2125 15.1377 83.5811 14.9876 83.9731 14.9876ZM83.9731 13.844C82.5209 13.844 81.3435 15.0026 81.3435 16.432C81.3435 17.8614 82.5209 19.0198 83.9731 19.0198C85.4253 19.0198 86.6025 17.8612 86.6025 16.432C86.6025 15.0028 85.4253 13.844 83.9731 13.844Z" fill="#231F20"/>
<path d="M69.4978 11.816L66.6134 16.7327L63.7291 11.816H62.3875L66.6134 19.0197L70.8394 11.816H69.4978Z" fill="#231F20"/>
<path d="M65.4237 18.7607L61.3497 11.8161H60.0081L65.4237 21.0479L66.0946 19.9045L65.4237 18.7607Z" fill="#231F20"/>
<path d="M74.2758 13.844C72.8237 13.844 71.6462 15.0026 71.6462 16.432C71.6462 17.8614 72.8237 19.02 74.2758 19.02C74.9767 19.02 75.6133 18.7501 76.0845 18.3104L75.2853 17.4803C75.0116 17.7361 74.6547 17.8764 74.2758 17.8764C73.884 17.8764 73.5153 17.7263 73.2382 17.4534C72.9611 17.1806 72.8084 16.818 72.8084 16.4322C72.8084 16.0464 72.9611 15.6836 73.2382 15.4109C73.5154 15.1381 73.884 14.988 74.2758 14.988C74.6547 14.988 75.0116 15.1283 75.2853 15.3841L76.0845 14.5541C75.6133 14.1139 74.9767 13.844 74.2758 13.844Z" fill="#231F20"/>
<path d="M76.703 18.9521C76.3942 19.2405 76.04 19.469 75.649 19.6317C75.2148 19.8124 74.7527 19.9043 74.2759 19.9043C73.7992 19.9043 73.3373 19.8124 72.9031 19.6317C72.483 19.457 72.1056 19.2065 71.7813 18.8872C71.4571 18.5679 71.2024 18.1964 71.0248 17.783C70.8412 17.3557 70.7481 16.9011 70.7481 16.4319C70.7481 15.9626 70.8412 15.5079 71.0248 15.0807C71.2025 14.6673 71.4571 14.2958 71.7813 13.9765C72.1057 13.6572 72.4832 13.4067 72.9031 13.2318C73.3373 13.0511 73.7993 12.9595 74.2759 12.9595C74.7527 12.9595 75.2148 13.0509 75.649 13.2318C76.04 13.3947 76.394 13.623 76.703 13.9116L77.5023 13.0815C76.6617 12.2971 75.5259 11.8159 74.2761 11.8159C71.6859 11.8159 69.5859 13.8826 69.5859 16.4319C69.5859 18.9811 71.6859 21.0479 74.2761 21.0479C75.5261 21.0479 76.6617 20.5666 77.5023 19.7822L76.703 18.9521Z" fill="#231F20"/>
<path d="M74.807 16.4318C74.807 16.7283 74.5629 16.9686 74.2616 16.9686C73.9604 16.9686 73.7163 16.7283 73.7163 16.4318C73.7163 16.1354 73.9604 15.8952 74.2616 15.8952C74.5631 15.8952 74.807 16.1354 74.807 16.4318Z" fill="#DD2431"/>
<path d="M60.4392 5.73627H61.5354C61.9469 5.73627 62.2582 5.83054 62.4693 6.01907C62.6802 6.20761 62.7859 6.48343 62.7859 6.84654C62.7859 7.23059 62.6759 7.52474 62.456 7.72899C62.236 7.93324 61.9203 8.03536 61.5088 8.03536H60.9288V9.40225H60.4392V5.73627ZM61.5726 7.63717C61.8103 7.63717 61.9939 7.57101 62.1234 7.43816C62.2529 7.30548 62.3176 7.11695 62.3176 6.87255C62.3176 6.63164 62.2502 6.44834 62.1154 6.32283C61.9806 6.19696 61.7855 6.13429 61.5301 6.13429H60.9288V7.63717H61.5726Z" fill="#6D6D6D"/>
<path d="M63.6931 9.28965C63.4997 9.1795 63.3507 9.02168 63.2461 8.81552C63.1414 8.60952 63.0891 8.36862 63.0891 8.09279C63.0891 7.81697 63.1414 7.57606 63.2461 7.37007C63.3507 7.1639 63.4997 7.00609 63.6931 6.89594C63.8864 6.78596 64.1143 6.73114 64.3769 6.73114C64.7742 6.73114 65.089 6.85334 65.3214 7.09774C65.5538 7.34214 65.6699 7.67382 65.6699 8.09279C65.6699 8.51176 65.5538 8.84362 65.3214 9.08785C65.089 9.33225 64.7742 9.45445 64.3769 9.45445C64.1143 9.45445 63.8864 9.39963 63.6931 9.28965ZM64.9941 8.84188C65.1431 8.66032 65.2176 8.41069 65.2176 8.09297C65.2176 7.77542 65.1431 7.52561 64.9941 7.34406C64.8451 7.1625 64.6394 7.07173 64.3769 7.07173C64.1179 7.07173 63.9139 7.1625 63.7649 7.34406C63.6159 7.52561 63.5414 7.77542 63.5414 8.09297C63.5414 8.41069 63.6159 8.66032 63.7649 8.84188C63.9139 9.02343 64.1179 9.11421 64.3769 9.11421C64.6394 9.11403 64.8451 9.02343 64.9941 8.84188Z" fill="#6D6D6D"/>
<path d="M69.3575 6.78369L68.6923 9.40225H68.2826L67.6387 7.26027L66.9948 9.40225H66.5851L65.9199 6.78369H66.3935L66.8245 8.79475L67.4312 6.78369H67.8462L68.4529 8.79475L68.8839 6.78369H69.3575Z" fill="#6D6D6D"/>
<path d="M71.981 8.26576H70.0653C70.0901 8.5311 70.1698 8.73273 70.3048 8.87065C70.4397 9.00856 70.6258 9.07751 70.8635 9.07751C71.1828 9.07751 71.4362 8.95374 71.6244 8.70568L71.8799 8.94658C71.7768 9.10736 71.6342 9.23218 71.4515 9.32121C71.2688 9.41024 71.0675 9.45476 70.8475 9.45476C70.4538 9.45476 70.1487 9.33605 69.9323 9.09863C69.7159 8.86139 69.6077 8.52779 69.6077 8.09852C69.6077 7.67257 69.7168 7.33844 69.9349 7.09561C70.1531 6.85296 70.4538 6.73163 70.8369 6.73163C71.1952 6.73163 71.4754 6.85138 71.6777 7.09037C71.8799 7.32953 71.981 7.66384 71.981 8.09328V8.26576ZM71.5661 7.89898C71.5661 7.64778 71.4996 7.45051 71.3665 7.30719C71.2335 7.16387 71.0499 7.09247 70.8158 7.09247C70.5958 7.09247 70.4211 7.16596 70.2916 7.3126C70.1621 7.45924 70.0868 7.66698 70.0655 7.93564H71.5661V7.89898Z" fill="#6D6D6D"/>
<path d="M72.5289 7.42263C72.5289 7.12586 72.5236 6.91289 72.5129 6.7837H72.9333C72.9475 6.92336 72.9546 7.07698 72.9546 7.24457V7.29712H72.9706C73.038 7.11556 73.1462 6.97591 73.2952 6.87815C73.4442 6.78039 73.6198 6.73151 73.822 6.73151C73.8787 6.73151 73.9302 6.73674 73.9763 6.74722V7.11382C73.9302 7.10334 73.8681 7.0981 73.7901 7.0981C73.6411 7.0981 73.5045 7.14262 73.3803 7.23183C73.2561 7.32086 73.1586 7.44218 73.0876 7.59581C73.0167 7.74943 72.9812 7.91702 72.9812 8.09857V9.40261H72.5289V7.42263Z" fill="#6D6D6D"/>
<path d="M76.5999 8.26576H74.6842C74.709 8.5311 74.7887 8.73273 74.9236 8.87065C75.0586 9.00856 75.2447 9.07751 75.4824 9.07751C75.8017 9.07751 76.0551 8.95374 76.2433 8.70568L76.4987 8.94658C76.3957 9.10736 76.2531 9.23218 76.0704 9.32121C75.8877 9.41024 75.6864 9.45476 75.4664 9.45476C75.0726 9.45476 74.7676 9.33605 74.5512 9.09863C74.3348 8.86139 74.2266 8.52779 74.2266 8.09852C74.2266 7.67257 74.3356 7.33844 74.5538 7.09561C74.772 6.85296 75.0726 6.73163 75.4558 6.73163C75.8141 6.73163 76.0943 6.85138 76.2965 7.09037C76.4988 7.32953 76.5999 7.66384 76.5999 8.09328V8.26576ZM76.1848 7.89898C76.1848 7.64778 76.1183 7.45051 75.9852 7.30719C75.8522 7.16387 75.6686 7.09247 75.4345 7.09247C75.2145 7.09247 75.0398 7.16596 74.9103 7.3126C74.7809 7.45924 74.7055 7.66698 74.6842 7.93564H76.1848V7.89898Z" fill="#6D6D6D"/>
<path d="M77.2728 9.07736C77.0724 8.82615 76.9722 8.48225 76.9722 8.04582C76.9722 7.7803 77.0183 7.54899 77.1105 7.35173C77.2028 7.15446 77.334 7.00171 77.5043 6.89348C77.6746 6.78542 77.8732 6.73113 78.1003 6.73113C78.4267 6.73113 78.6892 6.86555 78.8878 7.13439H78.8985V5.51611H79.3455V8.74201C79.3455 9.06671 79.3508 9.28667 79.3614 9.40189H78.9464C78.9393 9.31809 78.9357 9.18018 78.9357 8.98815H78.9251C78.8435 9.12781 78.7264 9.24041 78.5739 9.32612C78.4213 9.41149 78.2599 9.45426 78.0896 9.45426C77.7455 9.45443 77.4733 9.32892 77.2728 9.07736ZM78.6938 8.89685C78.8268 8.76226 78.8933 8.58175 78.8933 8.35481V7.87823C78.8933 7.63401 78.8259 7.43831 78.6911 7.29185C78.5563 7.14521 78.3772 7.07189 78.1537 7.07189C77.9266 7.07189 77.7484 7.15813 77.6189 7.33095C77.4894 7.50378 77.4247 7.74556 77.4247 8.05629C77.4247 8.381 77.4894 8.63587 77.6189 8.82091C77.7484 9.00613 77.9266 9.09848 78.1537 9.09848C78.3805 9.09831 78.5608 9.03127 78.6938 8.89685Z" fill="#6D6D6D"/>
<path d="M82.0698 9.3263C81.9137 9.24077 81.7966 9.12799 81.7186 8.98834H81.7079C81.7115 9.10024 81.7079 9.23815 81.6973 9.40207H81.2822C81.2929 9.28685 81.2982 9.06689 81.2982 8.74219V5.5163H81.7505V7.13457H81.7611C81.9385 6.86573 82.2062 6.73131 82.5647 6.73131C82.9052 6.73131 83.1747 6.84914 83.3735 7.08464C83.5722 7.32049 83.6715 7.64082 83.6715 8.04583C83.6715 8.48225 83.5713 8.82616 83.3708 9.07737C83.1704 9.32875 82.8981 9.45444 82.554 9.45444C82.3873 9.45444 82.2259 9.41167 82.0698 9.3263ZM83.0251 8.82092C83.1544 8.63588 83.2194 8.381 83.2194 8.0563C83.2194 7.74557 83.1546 7.50379 83.0251 7.33096C82.8956 7.15813 82.7174 7.0719 82.4903 7.0719C82.2704 7.0719 82.092 7.14609 81.9556 7.2943C81.819 7.44286 81.7507 7.63733 81.7507 7.87824V8.35482C81.7507 8.58193 81.8172 8.76244 81.9502 8.89686C82.0833 9.03128 82.2633 9.09832 82.4903 9.09832C82.7172 9.09832 82.8955 9.00597 83.0251 8.82092Z" fill="#6D6D6D"/>
<path d="M86.146 6.78369L85.1828 9.44939C84.938 10.1232 84.5601 10.4602 84.0494 10.4602C83.957 10.4602 83.8576 10.4479 83.7512 10.4235V10.0833C83.8151 10.104 83.8931 10.1147 83.9854 10.1147C84.1665 10.1147 84.3206 10.0501 84.4483 9.9209C84.576 9.79172 84.6984 9.57351 84.8153 9.26626L83.8255 6.78387H84.3098L85.023 8.78968L85.6561 6.78387H86.146V6.78369Z" fill="#6D6D6D"/>
</g>
<defs>
<clipPath id="clip0_487_487">
<rect width="96" height="24" fill="white" transform="translate(0.5)"/>
</clipPath>
</defs>
</svg>
