<svg width="148" height="32" viewBox="0 0 148 32" fill="none" xmlns="http://www.w3.org/2000/svg">
<path fill-rule="evenodd" clip-rule="evenodd" d="M3.20813 18.1323C2.90675 19.1452 2.74491 20.2183 2.74491 21.3291C2.74491 22.4399 2.90675 23.5129 3.20813 24.5258C1.47438 24.4888 0.0803223 23.0717 0.0803223 21.3291C0.0803223 19.5864 1.47438 18.1694 3.20813 18.1323Z" fill="#511D9A"/>
<path fill-rule="evenodd" clip-rule="evenodd" d="M35.3223 24.5258C37.056 24.4888 38.4501 23.0717 38.4501 21.3291C38.4501 19.5864 37.056 18.1694 35.3223 18.1323C35.6236 19.1452 35.7855 20.2183 35.7855 21.3291C35.7855 22.4399 35.6236 23.5129 35.3223 24.5258Z" fill="#511D9A"/>
<path fill-rule="evenodd" clip-rule="evenodd" d="M19.2656 2.14404L16.0681 10.6707H18.6261L18.6261 10.6707H13.9367C8.05023 10.6707 3.27832 15.4426 3.27832 21.3291C3.27832 27.2155 8.05023 31.9874 13.9367 31.9874H24.595C24.7499 31.9874 24.9041 31.9841 25.0574 31.9776L25.0745 31.9874L25.072 31.977C30.7371 31.7274 35.2534 27.0557 35.2534 21.3291C35.2534 15.4426 30.4815 10.6707 24.595 10.6707L19.9051 10.6707H22.4631L20.9177 6.48732L19.2656 2.14404ZM25.072 31.977L25.0574 31.9776L17.667 27.7241L14.4696 27.7241C10.9377 27.7241 8.07458 24.861 8.07458 21.3291C8.07458 17.7972 10.9377 14.9341 14.4696 14.9341H24.0621C27.594 14.9341 30.4571 17.7972 30.4571 21.3291C30.4571 24.861 27.594 27.7241 24.0621 27.7241L24.062 27.7241L25.072 31.977ZM19.9051 10.6707H18.6261L19.2656 7.47323L19.9051 10.6707Z" fill="url(#paint0_linear_1746_75054)"/>
<circle cx="19.2653" cy="1.07853" r="1.06583" fill="#48DBC0"/>
<circle cx="13.4034" cy="21.3826" r="2.13167" fill="#411083"/>
<circle cx="25.1275" cy="21.3826" r="2.13167" fill="#411083"/>
<path d="M49.8313 11.8124H55.9126C56.5813 11.8124 57.2013 11.9169 57.7725 12.1259C58.3577 12.3348 58.8592 12.6135 59.2772 12.9618C59.6951 13.3101 60.0225 13.7211 60.2594 14.1948C60.4962 14.6545 60.6146 15.1352 60.6146 15.6367C60.6146 16.4587 60.4126 17.1414 60.0086 17.6847C59.6185 18.2281 59.1518 18.6321 58.6084 18.8968V19.1058C59.4026 19.3984 60.0225 19.8442 60.4684 20.4433C60.9281 21.0423 61.158 21.7807 61.158 22.6584C61.158 23.2993 61.0256 23.8775 60.7609 24.393C60.5102 24.8945 60.1549 25.3264 59.6951 25.6886C59.2493 26.0369 58.7129 26.3086 58.086 26.5037C57.473 26.6848 56.8043 26.7753 56.0798 26.7753H49.8313V11.8124ZM55.5991 17.7474C56.1843 17.7474 56.6371 17.6151 56.9575 17.3504C57.2779 17.0856 57.4382 16.7095 57.4382 16.2219C57.4382 15.7342 57.2779 15.3581 56.9575 15.0934C56.6371 14.8287 56.2121 14.6963 55.6827 14.6963H53.0914V17.7474H55.5991ZM55.8708 23.8496C57.2222 23.8496 57.8979 23.2923 57.8979 22.1778C57.8979 21.0632 57.1943 20.5059 55.7872 20.5059H53.0914V23.8496H55.8708Z" fill="#686868"/>
<path d="M64.5327 15.4068C64.254 15.4068 63.9963 15.3581 63.7595 15.2606C63.5226 15.1491 63.3136 15.0098 63.1325 14.8426C62.9653 14.6615 62.826 14.4525 62.7146 14.2157C62.617 13.9788 62.5683 13.7211 62.5683 13.4424C62.5683 13.1777 62.617 12.927 62.7146 12.6901C62.826 12.4393 62.9653 12.2304 63.1325 12.0632C63.3136 11.8821 63.5226 11.7427 63.7595 11.6452C63.9963 11.5338 64.254 11.478 64.5327 11.478C64.7974 11.478 65.0482 11.5338 65.285 11.6452C65.5358 11.7427 65.7448 11.8821 65.912 12.0632C66.0931 12.2304 66.2324 12.4393 66.3299 12.6901C66.4414 12.927 66.4971 13.1777 66.4971 13.4424C66.4971 13.7211 66.4414 13.9788 66.3299 14.2157C66.2324 14.4525 66.0931 14.6615 65.912 14.8426C65.7448 15.0098 65.5358 15.1491 65.285 15.2606C65.0482 15.3581 64.7974 15.4068 64.5327 15.4068ZM62.9653 26.7753V16.5353H66.1V26.7753H62.9653Z" fill="#686868"/>
<path d="M67.904 24.2676L72.815 19.1267H68.0711V16.5353H76.6811V19.0431L71.7701 24.184H76.7647V26.7753H67.904V24.2676Z" fill="#686868"/>
<path d="M93.67 24.3512C92.1375 26.1902 90.1382 27.1097 87.6723 27.1097C86.5577 27.1097 85.5198 26.9077 84.5585 26.5037C83.5972 26.0996 82.7613 25.5493 82.0507 24.8527C81.3541 24.1422 80.8038 23.3132 80.3998 22.3659C79.9958 21.4185 79.7938 20.3945 79.7938 19.2939C79.7938 18.1932 79.9958 17.1692 80.3998 16.2219C80.8038 15.2745 81.3541 14.4525 82.0507 13.7559C82.7613 13.0454 83.5972 12.4881 84.5585 12.0841C85.5198 11.68 86.5577 11.478 87.6723 11.478C88.8983 11.478 89.9571 11.687 90.8488 12.105C91.7544 12.5229 92.5763 13.129 93.3147 13.9231L91.0369 16.1383C90.6468 15.6924 90.18 15.3233 89.6367 15.0307C89.0933 14.7242 88.4455 14.5709 87.6932 14.5709C87.0384 14.5709 86.4254 14.6824 85.8542 14.9053C85.2969 15.1282 84.8093 15.4486 84.3913 15.8666C83.9733 16.2846 83.6459 16.7861 83.4091 17.3713C83.1723 17.9425 83.0538 18.5833 83.0538 19.2939C83.0538 20.0044 83.1723 20.6522 83.4091 21.2374C83.6459 21.8086 83.9733 22.3032 84.3913 22.7211C84.8093 23.1391 85.2969 23.4595 85.8542 23.6824C86.4254 23.9053 87.0384 24.0168 87.6932 24.0168C88.4873 24.0168 89.1769 23.8566 89.7621 23.5362C90.3472 23.2157 90.8766 22.756 91.3503 22.1569L93.67 24.3512Z" fill="#511D9A"/>
<path d="M95.1859 11.8124H98.3206V15.7412L98.1116 17.831H98.3206C98.641 17.3295 99.066 16.9324 99.5954 16.6398C100.125 16.3473 100.724 16.201 101.393 16.201C102.688 16.201 103.657 16.5911 104.297 17.3713C104.938 18.1514 105.259 19.2521 105.259 20.6731V26.7753H102.124V21.0284C102.124 20.4711 101.992 20.0183 101.727 19.67C101.462 19.3078 101.051 19.1267 100.494 19.1267C99.7835 19.1267 99.2401 19.3984 98.864 19.9417C98.5017 20.485 98.3206 21.1956 98.3206 22.0733V26.7753H95.1859V11.8124Z" fill="#511D9A"/>
<path d="M113.345 25.8558H113.136C112.802 26.2181 112.419 26.5176 111.987 26.7544C111.569 26.9913 111.026 27.1097 110.357 27.1097C109.842 27.1097 109.354 27.0261 108.894 26.8589C108.448 26.6917 108.051 26.4549 107.703 26.1484C107.369 25.8419 107.104 25.4727 106.909 25.0408C106.714 24.6089 106.616 24.1283 106.616 23.5988C106.616 23.0834 106.721 22.6166 106.93 22.1987C107.139 21.7668 107.424 21.3976 107.787 21.0911C108.149 20.7846 108.574 20.5477 109.061 20.3806C109.563 20.2134 110.106 20.1298 110.691 20.1298C111.318 20.1298 111.834 20.1716 112.238 20.2552C112.656 20.3388 113.025 20.4363 113.345 20.5477V20.2761C113.345 19.8302 113.157 19.4541 112.781 19.1476C112.419 18.8271 111.924 18.6669 111.297 18.6669C110.392 18.6669 109.612 19.0361 108.957 19.7745L106.825 18.2699C107.41 17.5733 108.086 17.0578 108.852 16.7234C109.633 16.3751 110.489 16.201 111.423 16.201C113.095 16.201 114.355 16.5771 115.205 17.3295C116.055 18.0679 116.48 19.1963 116.48 20.7149V26.7753H113.345V25.8558ZM113.345 22.742C113.025 22.6166 112.705 22.5191 112.384 22.4495C112.078 22.3798 111.757 22.345 111.423 22.345C110.866 22.345 110.448 22.4634 110.169 22.7002C109.89 22.9231 109.751 23.2157 109.751 23.5779C109.751 23.9402 109.883 24.2327 110.148 24.4557C110.413 24.6646 110.761 24.7691 111.193 24.7691C111.541 24.7691 111.848 24.7134 112.112 24.6019C112.391 24.4766 112.621 24.3163 112.802 24.1213C112.983 23.9262 113.116 23.7103 113.199 23.4735C113.297 23.2227 113.345 22.9789 113.345 22.742Z" fill="#511D9A"/>
<path d="M119.366 19.1685H117.569V16.5353H119.366V13.4006H122.501V16.5353H125.029V19.1685H122.501V22.6166C122.501 22.8396 122.528 23.0485 122.584 23.2436C122.64 23.4247 122.737 23.5779 122.877 23.7033C123.086 23.8844 123.357 23.975 123.692 23.975C123.915 23.975 124.103 23.9471 124.256 23.8914C124.409 23.8357 124.542 23.766 124.653 23.6824L125.531 26.3992C125.169 26.5664 124.778 26.6987 124.36 26.7962C123.942 26.8938 123.497 26.9425 123.023 26.9425C121.922 26.9425 121.052 26.6221 120.411 25.9812C120.076 25.6468 119.819 25.2359 119.638 24.7482C119.456 24.2467 119.366 23.6964 119.366 23.0973V19.1685Z" fill="#511D9A"/>
<path d="M131.892 11.8124H135.654L141.255 26.7753H137.66L136.511 23.4317H131.036L129.886 26.7753H126.292L131.892 11.8124ZM135.466 20.4642L134.379 17.3295L133.878 15.4904H133.669L133.167 17.3295L132.08 20.4642H135.466Z" fill="#511D9A"/>
<path d="M142.806 11.8124H146.066V26.7753H142.806V11.8124Z" fill="#511D9A"/>
<defs>
<linearGradient id="paint0_linear_1746_75054" x1="19.2658" y1="2.14404" x2="19.2658" y2="31.9874" gradientUnits="userSpaceOnUse">
<stop stop-color="#511D9A"/>
<stop offset="1" stop-color="#32046F"/>
</linearGradient>
</defs>
</svg>
